<?xml version="1.0" encoding="utf-8"?>
<!-- Generator: Adobe Illustrator 18.1.1, SVG Export Plug-In . SVG Version: 6.00 Build 0)  -->
<svg version="1.1" xmlns="http://www.w3.org/2000/svg" xmlns:xlink="http://www.w3.org/1999/xlink" x="0px" y="0px"
	 viewBox="0 0 158.098 82.407" enable-background="new 0 0 158.098 82.407" xml:space="preserve">
<g id="Layer_2" display="none">
	<rect x="0" y="0" display="inline" width="158.098" height="82.407"/>
</g>
<g id="Layer_1">
	<g>
		<path fill="#FFFFFF" d="M48.34,55.411c-2.146,1.41-3.708,3.479-6.258,4.529c-2.308,0.95-4.179,2.973-6.218,4.554
			c-0.242,0.187-0.334,0.57-0.491,0.864c-1.044,1.949-2.016,3.94-3.15,5.835c-1.076,1.797-0.333,3.889,0.158,5.96
			c0.393,1.658,1.314,2.48,2.61,4.263c2.046,1.407,2.911,0.904,2.911,0.904s3.067,0.171,5.144-1.354c0,0,4.031-5.016,5.439-7.019
			c2.78-3.955,3.341-9.088,4.637-13.736c0.588-2.108,1.451-3.586,3.284-4.703c2.15-1.31,2.236-1.354,3.177,0.903
			c1.633,3.914,4.473,4.609,7.723,1.869c1.063-0.896,2.107-1.816,3.115-2.772c0.692-0.656,1.331-0.881,2.221-0.324
			c1.258,0.788,2.246,0.34,2.896-0.902c0.876-1.675,1.689-3.382,2.572-5.054c0.184-0.349,0.553-0.601,0.836-0.898
			c0.272,0.316,0.603,0.598,0.804,0.954c0.464,0.82,0.791,1.723,1.307,2.505c0.988,1.498,2.273,1.376,3.748-0.293
			c0.18-0.203,0.347-0.42,0.502-0.642c1.132-1.623,2.216-3.28,3.328-4.917c0.903-1.33,1.554-1.322,2.491-0.042
			c0.624,0.853,1.181,1.844,2.011,2.429c0.614,0.433,1.62,0.381,2.447,0.361c0.122-0.003,0.423-1.08,0.294-1.567
			c-0.638-2.397-1.294-4.8-2.15-7.125c-0.444-1.207-1.178-2.379-2.035-3.341c-0.821-0.923-1.885-0.844-2.688,0.269
			c-0.683,0.947-1.425,1.855-2.064,2.831c-1.362,2.081-1.538,2.011-2.851-0.038c-0.565-0.882-1.668-1.682-2.665-1.908
			c-0.47-0.107-1.433,1.136-1.881,1.931c-0.98,1.739-1.741,3.6-2.661,5.376c-0.337,0.65-0.934,1.706-1.703,0.812
			c-0.931-1.082-1.463-2.514-2.125-3.816c-0.194-0.382-0.148-0.9-0.375-1.25c-1.459-2.258-7.599-2.647-9.244-0.502
			c-1.143,1.491-2.195,3.108-2.958,4.817c-0.714,1.599-1.593,2.922-3.104,3.784c-0.405,0.231-0.887,0.328-1.333,0.487
			c-0.137-0.504-0.438-1.028-0.383-1.51c0.208-1.823,0.561-3.629,0.8-5.45c0.151-1.15,0.427-2.36,0.21-3.457
			c-0.149-0.755-1.045-1.363-1.608-2.036c-0.539,0.551-1.099,1.082-1.611,1.656c-0.743,0.833-1.452,1.698-2.176,2.549
			c-0.659-0.616-1.416-1.159-1.957-1.865c-0.998-1.302-2.153-1.996-3.86-1.782c-1.729,0.217-2.458,1.431-2.981,2.806
			c-0.472,1.241-0.57,2.651-1.176,3.806c-0.467,0.892-1.375,1.672-2.273,2.159c-0.336,0.183-1.185-0.629-1.823-0.941
			c-0.962-0.471-1.949-1.286-2.914-1.27c-2.189,0.036-4.096,0.669-6.066,2.139c-2.276,1.699-4.747,2.987-6.513,5.389
			c-1.188,1.616-2.941,2.813-4.421,4.218c-1.987,1.886-3.951,3.797-5.933,5.689c-0.437,0.417-1.183,1.065-1.655,1.442
			c-1.402,1.116-2.799,2.24-4.252,3.286c-0.397,0.286-1.007,0.275-1.52,0.401c-0.12-0.565-0.408-1.157-0.325-1.691
			c0.168-1.093,0.521-2.159,0.823-3.23c2.11-7.501,4.26-14.992,6.31-22.51c0.359-1.317,0.374-2.745,0.398-4.124
			c0.006-0.379-0.47-0.976-0.842-1.088c-0.312-0.094-0.957,0.271-1.164,0.611c-0.477,0.781-0.909,1.637-1.128,2.519
			c-1.159,4.678-2.088,9.42-3.411,14.049c-1.006,3.52-2.491,6.902-3.736,10.355c-0.186,0.517-0.249,1.084-0.326,1.634
			c-0.199,1.426-0.58,2.865-0.518,4.282c0.153,3.537,1.685,6.031,5.675,4.342c0.347-0.147,0.68-0.331,0.991-0.543
			c4.782-3.268,8.75-7.422,12.677-11.624c0.758-0.812,1.524-1.631,2.378-2.334c0.938-0.773,1.507-0.403,1.685,0.75
			c0.204,1.318,0.434,2.632,0.668,3.945c0.425,2.39,2.808,4.197,5.127,3.575c1.453-0.39,2.9-1.158,4.092-2.087
			c2.189-1.705,3.719-3.957,4.559-6.655c0.415-1.334,1.152-2.69,2.769-2.367c2.444,0.488,4.165-0.515,5.883-2.002
			c1.077-0.932,2.355-1.631,3.571-2.453C50.679,52.454,50.128,54.236,48.34,55.411z M47.116,64.421
			c-0.482,2.105-0.902,4.202-2.4,5.96c-1.724,2.023-3.197,4.258-4.827,6.364c-0.799,1.032-1.852,2.205-3.187,1.372
			c-0.853-0.532-1.206-1.865-1.736-2.758c0.535-1.549,0.673-2.881,1.366-3.79c2.555-3.347,5.175-6.692,9.305-8.291
			c0.393-0.152,0.839-0.168,1.261-0.247C46.979,63.496,47.213,63.996,47.116,64.421z M63.516,51.406
			c1.264-1.343,2.781-2.464,4.285-3.555c0.595-0.432,1.41-0.562,2.422-0.94c-1.679,2.193-3.09,4.151-4.643,5.988
			c-0.414,0.489-1.266,0.608-1.917,0.897C63.591,52.977,63.142,51.804,63.516,51.406z M28.361,60.465
			c-0.305,0.05-0.69-0.385-1.038-0.599c0.252-0.306,0.464-0.827,0.761-0.881c1.079-0.195,2.241-0.564,3.454,0.636
			C30.323,59.961,29.357,60.302,28.361,60.465z M34.351,52.058c-1.121,0.863-2.674,1.243-4.102,1.602
			c-0.955,0.24-1.598-0.322-1.485-1.383c0.048-2.326,1.269-3.786,3.758-4.076c0.827-0.096,2.352,0.398,2.482,0.9
			C35.238,50.009,34.997,51.561,34.351,52.058z M45.464,44.614c-0.351-0.47-0.705-0.825-0.655-0.897
			c0.387-0.557,0.834-1.08,1.322-1.551c0.055-0.053,0.481,0.279,0.735,0.432C46.445,43.203,46.024,43.809,45.464,44.614z"/>
		<path fill="#FFFFFF" d="M123.016,4.524c-0.149,0.988-0.2,2.006-0.494,2.949c-0.128,0.412-0.754,0.67-1.154,0.998
			c-0.269-0.365-0.564-0.713-0.798-1.098c-0.238-0.393-0.415-0.823-0.619-1.237c-0.405,0.323-0.954,0.564-1.193,0.982
			c-3.631,6.348-6.009,13.143-7.027,20.389c-0.144,1.022,0.004,2.116,0.188,3.146c0.335,1.886,1.276,2.666,3.141,2.398
			c2.106-0.303,4.013-1.092,5.632-2.64c1.548-1.48,3.339-2.705,5.022-4.044c0.3-0.238,0.719-0.425,0.868-0.737
			c1.343-2.818,2.814-5.594,3.891-8.514c0.865-2.343,2.358-4,4.339-5.294c1.158-0.756,3.186,0.391,3.201,1.874
			c0.011,1.049-0.458,2.106-0.732,3.155c-0.116,0.441-0.28,0.87-0.425,1.304c-0.083,0.246-0.096,0.598-0.268,0.719
			c-3.552,2.498-4.772,6.209-5.315,10.25c-0.062,0.465,0.28,0.983,0.434,1.477c0.449-0.163,1.004-0.21,1.328-0.508
			c1.878-1.727,3.673-3.464,4.41-6.101c0.682-2.442,1.687-4.804,2.7-7.136c0.261-0.602,1.162-1.41,1.633-1.329
			c0.811,0.139,1.764,0.742,2.209,1.437c0.859,1.342,0.683,2.865,0.009,4.321c-0.395,0.854-0.765,1.729-1.044,2.626
			c-0.29,0.934-0.519,1.721,1.028,2.008c0.69,0.128,1.237,1.424,1.701,2.272c0.526,0.961-0.65,3.025-2.344,4.066
			c-1.115,0.685-2.267,1.188-3.392-0.194c-1.244-1.53-1.252-1.353-2.443,0.202c-1.316,1.719-2.363,3.771-4.763,4.444
			c-2.595,0.727-3.55,0.433-4.943-1.949c-1.528-2.613-1.464-2.511-4.107-0.872c-2.063,1.279-4.248,2.41-6.491,3.337
			c-2.787,1.153-6.383-0.387-7.645-3.11c-0.694-1.496-1.494-3.013-1.784-4.605c-0.266-1.456,0.076-3.027,0.176-4.545
			c0.073-1.107,0.197-2.21,0.285-3.316c0.09-1.138,1.909-5.585,2.518-6.857c0.556-1.161-0.494,0.716,0.556-1.161
			c0.643-1.151,1.547-3.966,3.075-6.647c1.422-2.495,3.476-4.872,3.997-5.724c0.62-1.013,1.082-1.194,2.095-0.607
			C121.99,1.532,123.388,2.405,123.016,4.524z"/>
		<path fill="#FFFFFF" d="M149.07,20.975c0.801-3.042,1.544-6.102,2.47-9.105c0.126-0.408,1.41-0.923,1.738-0.717
			c0.914,0.573,1.842,1.381,2.309,2.323c0.341,0.687,0.005,1.739-0.11,2.617c-0.355,2.7-0.807,5.388-1.104,8.094
			c-0.161,1.464,0.119,2.665,1.97,3.121c0.749,0.185,1.677,1.323,1.75,2.101c0.073,0.771-0.66,2.093-1.342,2.341
			c-0.875,0.318-2.345,0.162-3.046-0.413c-2.413-1.979-4.195-4.432-4.154-7.801c0.01-0.829-0.148-1.66-0.23-2.49
			C149.238,21.022,149.154,20.999,149.07,20.975z"/>
		<path fill="#FFFFFF" d="M147.804,5.775c-0.826-0.087-1.652-0.168-2.477-0.262c-1.976-0.225-3.724-2.25-3.622-4.189
			c0.051-0.971,1.021-1.54,2.064-1.245c1.376,0.39,2.766,0.733,4.139,1.135c0.47,0.137,0.928,0.35,1.353,0.595
			c1.062,0.613,1.541,1.67,0.968,2.666c-0.419,0.728-1.455,1.1-2.217,1.631C147.944,5.995,147.874,5.885,147.804,5.775z"/>
	</g>
</g>
</svg>
